<svg width="23" height="21" viewBox="0 0 23 21" fill="none" xmlns="http://www.w3.org/2000/svg">
<path fill-rule="evenodd" clip-rule="evenodd" d="M0.231689 5.21144C-0.105132 8.68955 -0.0901184 12.701 0.378573 16.1649C0.63791 18.0817 2.04543 19.5511 3.78285 19.7189L5.59863 19.8943C9.38478 20.2601 13.1924 20.2601 16.9785 19.8943L18.7943 19.7189C20.5317 19.5511 21.9392 18.0817 22.1986 16.1649C22.6672 12.7009 22.6823 8.68978 22.3455 5.21165C22.3019 4.80842 22.2529 4.40573 22.1986 4.00372C21.9392 2.08702 20.5317 0.61762 18.7943 0.449764L16.9785 0.274339C13.1923 -0.0914465 9.38478 -0.0914463 5.59863 0.274339L3.78285 0.449764C2.04542 0.61762 0.63791 2.08702 0.378573 4.00372C0.324189 4.40566 0.275227 4.80828 0.231689 5.21144ZM5.75481 2.27118C9.43704 1.91544 13.1401 1.91544 16.8223 2.27118L18.6381 2.44661C19.545 2.53423 20.2798 3.30126 20.4151 4.30178C20.4292 4.40568 20.4429 4.50964 20.4562 4.61363L13.7701 8.7419C12.2268 9.69479 10.3502 9.69479 8.80696 8.7419L2.12096 4.61368C2.13425 4.50967 2.14793 4.4057 2.16199 4.30178C2.29737 3.30126 3.03209 2.53423 3.93904 2.44661L5.75481 2.27118ZM20.6768 6.77029C20.9101 9.80057 20.8228 12.8537 20.4151 15.8669C20.2798 16.8674 19.545 17.6344 18.6381 17.7221L16.8223 17.8975C13.1401 18.2532 9.43704 18.2532 5.75482 17.8975L3.93904 17.7221C3.0321 17.6344 2.29737 16.8674 2.16199 15.8669C1.7543 12.8537 1.66706 9.80061 1.90027 6.77034L7.93112 10.494C10.0191 11.7832 12.5579 11.7832 14.6459 10.494L20.6768 6.77029Z" fill="#C2C3CB"/>
</svg>
