<svg width="27" height="20" viewBox="0 0 27 20" fill="none" xmlns="http://www.w3.org/2000/svg">
<path fill-rule="evenodd" clip-rule="evenodd" d="M25.1382 1.4234C25.5324 1.09778 25.5324 0.569841 25.1382 0.244218C24.744 -0.0814058 24.1048 -0.0814058 23.7106 0.244218L2.17574 18.0322C1.78153 18.3578 1.78153 18.8857 2.17574 19.2114C2.56995 19.537 3.2091 19.537 3.60332 19.2114L7.43504 16.0463C9.27399 16.7614 11.392 17.2321 13.657 17.2321C17.2695 17.2321 20.5082 16.0347 22.837 14.5583C24.0036 13.8187 24.9671 12.9936 25.6477 12.1835C26.3096 11.3957 26.7798 10.5313 26.7798 9.72779C26.7798 8.92433 26.3096 8.05985 25.6477 7.27211C24.9671 6.46197 24.0036 5.63687 22.837 4.89729C22.4842 4.67362 22.1105 4.45636 21.7178 4.24869L25.1382 1.4234ZM20.2514 5.45993L17.868 7.42865C18.3965 8.08772 18.7042 8.87807 18.7042 9.72779C18.7042 12.0303 16.4445 13.8968 13.657 13.8968C12.6283 13.8968 11.6714 13.6426 10.8735 13.2061L8.96673 14.7812C10.4009 15.2637 11.9909 15.5645 13.657 15.5645C16.7345 15.5645 19.5524 14.5384 21.6078 13.2354C22.6333 12.5853 23.4438 11.8817 23.9891 11.2327C24.5532 10.5613 24.7609 10.0361 24.7609 9.72779C24.7609 9.41951 24.5532 8.8943 23.9891 8.22288C23.4438 7.57384 22.6333 6.87029 21.6078 6.22019C21.1863 5.95297 20.7327 5.6974 20.2514 5.45993ZM12.3513 11.9854C12.7467 12.1417 13.1894 12.2292 13.657 12.2292C15.3295 12.2292 16.6853 11.1093 16.6853 9.72779C16.6853 9.34162 16.5794 8.97588 16.3902 8.64933L12.3513 11.9854Z" fill="#B8B8B8"/>
<path d="M13.657 2.2235C15.0473 2.2235 16.3822 2.40085 17.6312 2.7032C17.8499 2.75616 17.9102 3.03429 17.7367 3.17763L16.6221 4.09822C16.5574 4.15167 16.4721 4.17287 16.3897 4.15689C15.5126 3.98682 14.5969 3.89112 13.657 3.89112C10.5794 3.89112 7.7615 4.91717 5.70612 6.22019C4.68066 6.87029 3.87013 7.57384 3.32484 8.22288C2.76073 8.8943 2.55305 9.41951 2.55305 9.72779C2.55305 10.0361 2.76073 10.5613 3.32484 11.2327C3.79735 11.7951 4.46901 12.3984 5.30709 12.9725C5.46231 13.0788 5.47581 13.3052 5.33076 13.425L4.34598 14.2384C4.25149 14.3165 4.11682 14.3236 4.01572 14.2543C3.05531 13.5962 2.25497 12.8842 1.66622 12.1835C1.00438 11.3957 0.534149 10.5313 0.534149 9.72779C0.534149 8.92433 1.00438 8.05985 1.66622 7.27211C2.34686 6.46197 3.3103 5.63687 4.47693 4.89729C6.80572 3.42094 10.0445 2.2235 13.657 2.2235Z" fill="#B8B8B8"/>
<path d="M13.657 5.55874C13.8213 5.55874 13.9837 5.56522 14.144 5.5779C14.3799 5.59655 14.4585 5.88545 14.276 6.03612L12.6709 7.36196C11.7916 7.61195 11.0954 8.187 10.7928 8.91331L9.06057 10.3441C8.90421 10.4733 8.66821 10.396 8.64108 10.1951C8.62037 10.0417 8.60973 9.88575 8.60973 9.72779C8.60973 7.42529 10.8695 5.55874 13.657 5.55874Z" fill="#B8B8B8"/>
</svg>
