<svg width="29" height="35" viewBox="0 0 29 35" fill="none" xmlns="http://www.w3.org/2000/svg">
<g filter="url(#filter0_d_11_326)">
<path d="M12.2875 19.3696C12.2875 18.2514 13.1939 17.3449 14.3122 17.3449C15.4304 17.3449 16.3369 18.2514 16.3369 19.3696C16.3369 20.4878 15.4304 21.3943 14.3122 21.3943C13.1939 21.3943 12.2875 20.4878 12.2875 19.3696Z" fill="#C2C3CB"/>
<path fill-rule="evenodd" clip-rule="evenodd" d="M8.40228 12.0769L7.9765 8.24482C7.92191 7.75353 7.92191 7.2577 7.9765 6.7664L8.00723 6.48983C8.33319 3.5562 10.6395 1.23501 13.5709 0.89013C14.0634 0.832196 14.5609 0.832196 15.0533 0.89013C17.9848 1.23501 20.2911 3.5562 20.617 6.48983L20.6478 6.7664C20.7023 7.2577 20.7023 7.75353 20.6478 8.24482L20.222 12.0769L21.1487 12.1508C22.6102 12.2675 23.8036 13.3661 24.0405 14.813C24.5346 17.8306 24.5346 20.9086 24.0405 23.9263C23.8036 25.3731 22.6102 26.4717 21.1487 26.5884L19.1293 26.7496C15.923 27.0056 12.7014 27.0056 9.49511 26.7496L7.47564 26.5884C6.01418 26.4717 4.82082 25.3731 4.58391 23.9263C4.08979 20.9086 4.08979 17.8306 4.58391 14.813C4.82082 13.3661 6.01418 12.2675 7.47564 12.1508L8.40228 12.0769ZM13.8075 2.90096C14.1428 2.86151 14.4815 2.86151 14.8168 2.90096C16.8126 3.13576 18.3828 4.71611 18.6047 6.71342L18.6354 6.98999C18.6735 7.33268 18.6735 7.67854 18.6354 8.02123L18.2019 11.9228C15.6114 11.7559 13.0128 11.7559 10.4223 11.9228L9.98881 8.02123C9.95073 7.67854 9.95073 7.33268 9.98881 6.98999L10.0195 6.71342C10.2415 4.7161 11.8116 3.13576 13.8075 2.90096ZM18.9681 14.0079C15.8691 13.7605 12.7553 13.7605 9.65624 14.0079L7.63677 14.1691C7.10369 14.2117 6.66841 14.6124 6.582 15.1401C6.12335 17.9411 6.12335 20.7981 6.582 23.5991C6.66841 24.1268 7.10369 24.5276 7.63677 24.5701L9.65624 24.7313C12.7553 24.9787 15.8691 24.9787 18.9682 24.7313L20.9876 24.5701C21.5207 24.5276 21.956 24.1268 22.0424 23.5991C22.501 20.7981 22.501 17.9411 22.0424 15.1401C21.956 14.6124 21.5207 14.2117 20.9876 14.1691L18.9681 14.0079Z" fill="#C2C3CB"/>
</g>
<defs>
<filter id="filter0_d_11_326" x="0.213318" y="0.84668" width="28.1978" height="34.0949" filterUnits="userSpaceOnUse" color-interpolation-filters="sRGB">
<feFlood flood-opacity="0" result="BackgroundImageFix"/>
<feColorMatrix in="SourceAlpha" type="matrix" values="0 0 0 0 0 0 0 0 0 0 0 0 0 0 0 0 0 0 127 0" result="hardAlpha"/>
<feOffset dy="4"/>
<feGaussianBlur stdDeviation="2"/>
<feComposite in2="hardAlpha" operator="out"/>
<feColorMatrix type="matrix" values="0 0 0 0 0 0 0 0 0 0 0 0 0 0 0 0 0 0 0.25 0"/>
<feBlend mode="normal" in2="BackgroundImageFix" result="effect1_dropShadow_11_326"/>
<feBlend mode="normal" in="SourceGraphic" in2="effect1_dropShadow_11_326" result="shape"/>
</filter>
</defs>
</svg>
